<svg xmlns="http://www.w3.org/2000/svg" version="1.1" xmlns:xlink="http://www.w3.org/1999/xlink" xmlns:svgjs="http://svgjs.dev/svgjs" width="1440" height="560" preserveAspectRatio="none" viewBox="0 0 1440 560"><g mask="url(&quot;#SvgjsMask1220&quot;)" fill="none"><rect width="1440" height="560" x="0" y="0" fill="url(&quot;#SvgjsLinearGradient1221&quot;)"></rect><path d="M1512 560L0 560 L0 333.58Q77.56 291.14, 120 368.7Q142.24 270.94, 240 293.18Q285.36 266.54, 312 311.9Q354.04 281.94, 384 323.98Q438.07 306.05, 456 360.12Q480.3 312.42, 528 336.72Q574.32 263.04, 648 309.35Q737 278.35, 768 367.35Q818.67 298.02, 888 348.69Q962.51 303.2, 1008 377.71Q1020.55 270.26, 1128 282.81Q1169.01 251.81, 1200 292.82Q1273.75 246.57, 1320 320.32Q1372.45 252.77, 1440 305.23Q1467.62 260.85, 1512 288.46z" fill="rgba(93, 24, 24, 1)"></path><path d="M1512 560L0 560 L0 437.97Q14.52 380.49, 72 395.01Q91.28 342.29, 144 361.57Q186.01 331.58, 216 373.59Q293.71 331.3, 336 409.02Q378.63 379.65, 408 422.28Q430.07 372.35, 480 394.41Q522.89 365.3, 552 408.19Q593.54 329.73, 672 371.26Q756.21 335.47, 792 419.68Q843.1 350.78, 912 401.89Q967.14 385.03, 984 440.18Q1011.59 395.76, 1056 423.35Q1109.52 356.87, 1176 410.39Q1227.4 341.79, 1296 393.19Q1351.93 377.12, 1368 433.05Q1370.13 363.18, 1440 365.31Q1511.34 364.65, 1512 435.99z" fill="rgba(233, 7, 7, 1)"></path><path d="M1488 560L0 560 L0 474.75Q68.47 423.22, 120 491.69Q163.8 415.49, 240 459.29Q284.24 383.53, 360 427.78Q455.82 403.6, 480 499.42Q507.55 454.97, 552 482.52Q572.02 430.54, 624 450.57Q691.74 398.31, 744 466.05Q790.75 392.8, 864 439.55Q947.42 402.97, 984 486.39Q1025.85 456.24, 1056 498.08Q1123.77 445.85, 1176 513.61Q1194.86 412.47, 1296 431.33Q1337.9 401.23, 1368 443.13Q1438.13 393.25, 1488 463.38z" fill="rgba(195, 59, 59, 1)"></path><path d="M1464 560L0 560 L0 563.07Q34.45 525.52, 72 559.96Q118.15 486.11, 192 532.26Q210.34 478.6, 264 496.93Q306.31 467.25, 336 509.56Q414.44 468, 456 546.43Q526.38 496.81, 576 567.19Q610.36 481.55, 696 515.91Q748.22 448.13, 816 500.35Q868.59 480.94, 888 533.53Q918.65 492.18, 960 522.84Q1049.03 491.87, 1080 580.89Q1101.1 481.99, 1200 503.08Q1246.89 477.97, 1272 524.86Q1329.98 510.84, 1344 568.82Q1374.36 479.18, 1464 509.54z" fill="rgba(127, 49, 29, 1)"></path></g><defs><mask id="SvgjsMask1220"><rect width="1440" height="560" fill="#ffffff"></rect></mask><linearGradient x1="15.28%" y1="-39.29%" x2="84.72%" y2="139.29%" gradientUnits="userSpaceOnUse" id="SvgjsLinearGradient1221"><stop stop-color="#0e2a47" offset="0"></stop><stop stop-color="rgba(0, 108, 158, 1)" offset="1"></stop></linearGradient></defs></svg>