<svg xmlns="http://www.w3.org/2000/svg" version="1.1" xmlns:xlink="http://www.w3.org/1999/xlink" xmlns:svgjs="http://svgjs.dev/svgjs" width="1440" height="560" preserveAspectRatio="none" viewBox="0 0 1440 560"><g mask="url(&quot;#SvgjsMask1013&quot;)" fill="none"><rect width="1440" height="560" x="0" y="0" fill="#1e3266"></rect><path d="M1464 560L0 560 L0 313.51Q36.4 277.91, 72 314.31Q98.6 268.91, 144 295.51Q200.57 280.08, 216 336.65Q236.97 285.62, 288 306.59Q370.96 269.55, 408 352.51Q461.49 286, 528 339.48Q565.13 256.62, 648 293.75Q714.59 240.34, 768 306.92Q842.59 261.51, 888 336.1Q926.2 254.31, 1008 292.51Q1081.45 245.97, 1128 319.42Q1175 294.42, 1200 341.42Q1246.62 316.03, 1272 362.65Q1298.13 268.78, 1392 294.91Q1440.43 271.34, 1464 319.77z" fill="#182f5d"></path><path d="M1512 560L0 560 L0 436.47Q57.39 373.87, 120 431.26Q144.91 336.17, 240 361.09Q317.51 318.6, 360 396.1Q411.98 376.08, 432 428.06Q462.53 338.59, 552 369.11Q597.22 342.33, 624 387.55Q666.25 357.81, 696 400.06Q749.68 381.74, 768 435.42Q821.05 368.47, 888 421.51Q915.01 328.52, 1008 355.53Q1082.01 309.54, 1128 383.56Q1190.19 373.75, 1200 435.94Q1217.97 333.91, 1320 351.89Q1389.12 301, 1440 370.12Q1502.94 361.06, 1512 424z" fill="#25467d"></path><path d="M1464 560L0 560 L0 421.38Q53.62 403, 72 456.61Q133.96 446.57, 144 508.53Q146.22 438.75, 216 440.96Q266.08 371.04, 336 421.13Q397.1 410.23, 408 471.33Q454.23 445.56, 480 491.79Q504.29 396.08, 600 420.37Q668.09 368.46, 720 436.54Q766.75 411.3, 792 458.05Q852.45 446.5, 864 506.95Q882.68 405.63, 984 424.32Q1050.43 370.75, 1104 437.18Q1171.81 384.99, 1224 452.8Q1304.61 413.41, 1344 494.02Q1414.03 444.05, 1464 514.08z" fill="#356cb1"></path><path d="M1560 560L0 560 L0 577.26Q60.04 517.3, 120 577.34Q145.3 482.64, 240 507.95Q293.28 441.23, 360 494.51Q427.13 489.63, 432 556.76Q473.56 526.32, 504 567.87Q570.51 514.38, 624 580.89Q650.56 487.45, 744 514.02Q813.51 463.53, 864 533.05Q916.16 513.21, 936 565.38Q1002 511.38, 1056 577.39Q1091.85 493.24, 1176 529.09Q1218.12 499.21, 1248 541.33Q1259.28 480.62, 1320 491.9Q1392.7 444.6, 1440 517.31Q1519.18 476.49, 1560 555.67z" fill="white"></path></g><defs><mask id="SvgjsMask1013"><rect width="1440" height="560" fill="#ffffff"></rect></mask></defs></svg>