<svg xmlns="http://www.w3.org/2000/svg" version="1.1" xmlns:xlink="http://www.w3.org/1999/xlink" xmlns:svgjs="http://svgjs.dev/svgjs" width="1440" height="560" preserveAspectRatio="none" viewBox="0 0 1440 560"><g mask="url(&quot;#SvgjsMask1006&quot;)" fill="none"><path d="M1464 560L0 560 L0 324.09Q62.8 266.88, 120 329.68Q161.83 251.51, 240 293.35Q328.92 262.27, 360 351.19Q402.92 322.11, 432 365.03Q469.1 282.13, 552 319.23Q570.49 265.72, 624 284.2Q695.19 235.39, 744 306.58Q816.89 259.48, 864 332.37Q917.54 313.91, 936 367.46Q938.2 297.65, 1008 299.85Q1035.54 255.39, 1080 282.93Q1140.81 271.74, 1152 332.54Q1230.06 290.6, 1272 368.66Q1300.27 276.93, 1392 305.19Q1434.21 275.4, 1464 317.61z" fill="#182f5d"></path><path d="M1512 560L0 560 L0 359.82Q92.95 332.77, 120 425.73Q161.46 395.19, 192 436.65Q237.35 362, 312 407.34Q341.07 364.41, 384 393.48Q470.63 360.12, 504 446.75Q518.68 389.43, 576 404.1Q617.46 325.56, 696 367.02Q788.12 339.14, 816 431.26Q862.23 357.49, 936 403.71Q985.75 333.45, 1056 383.2Q1139.48 346.68, 1176 430.16Q1205.24 387.4, 1248 416.64Q1296.07 392.71, 1320 440.78Q1342.86 343.63, 1440 366.49Q1468.86 323.35, 1512 352.2z" fill="#25467d"></path><path d="M1560 560L0 560 L0 470.1Q40.4 438.5, 72 478.91Q84.47 419.38, 144 431.86Q174.88 390.75, 216 421.63Q309.46 395.09, 336 488.55Q367.75 400.3, 456 432.05Q500.64 404.69, 528 449.34Q604.11 405.45, 648 481.56Q686.59 400.15, 768 438.74Q859.63 410.37, 888 501.99Q922.29 416.28, 1008 450.57Q1073.57 396.13, 1128 461.7Q1198.58 412.28, 1248 482.86Q1295.69 458.56, 1320 506.25Q1350.81 417.06, 1440 447.87Q1522.83 410.7, 1560 493.53z" fill="#356cb1"></path><path d="M1536 560L0 560 L0 528.4Q28.42 484.82, 72 513.24Q126.21 495.45, 144 549.67Q195.55 529.22, 216 580.78Q248.47 493.25, 336 525.71Q379.3 497.01, 408 540.31Q445.87 458.18, 528 496.05Q594.25 442.3, 648 508.54Q740.62 481.15, 768 573.77Q800.78 486.55, 888 519.32Q912.34 471.66, 960 495.99Q1014.32 478.31, 1032 532.62Q1059.95 488.57, 1104 516.51Q1130.26 470.77, 1176 497.04Q1260.73 461.77, 1296 546.5Q1364.61 495.11, 1416 563.71Q1486.67 514.38, 1536 585.05z" fill="white"></path></g><defs><mask id="SvgjsMask1006"><rect width="1440" height="560" fill="#ffffff"></rect></mask></defs></svg>